<svg xmlns="http://www.w3.org/2000/svg" id="Layer_1" width="512" height="512" viewBox="0 0 512 512"><path d="M480 0H32C14.3 0 0 14.3 0 32v448c0 17.7 14.3 32 32 32h229.7c-.3-14.4 3.6-26.2 1-41.8-32.3-95.1-84-108.9-179.7-158.4 29.8 1 56.9 4 83 21.1-12.6-21.3-29.5-22.1-43.3-37.3 0 0 30.4 10.5 40.2 15.7 57.3 33.7 74.4 71.8 105.5 146.8-.8-16.3-2.1-42.8-3.2-49.9-1.5-9.6-21.6-52-37.7-72.9-55.6-73.7-106.9-142.4-170.8-208.7 33.9 23.2 117.3 86.8 138.5 116.6-9.5-44.6-52-90.8-91.5-125.8 69.6 17 121.7 131.8 150.2 190.4 2 10.5 10.3 35.8 13.7 45.8 1.2 3.5 3.1 11.7 5.2 20.8l-1.3-13.8s-5.9-33.2-7.8-44.5c-11.7-66.5-28.8-132.2-31.3-200 1-12.2-5.9-45.4-8.8-62-2.9-16.6-18.6-48-18.6-48.9 0 0 19.6 14.9 25.5 21 20.8 24 15.2 53.3 33.3 76.8-6.2-35.3-.2-57.4-30.4-83 37.8 12 28.8 33.8 40.2 68.1 11.6-29.2 23.7-66 59.7-72.5-31.2 26-20.3 235.1-44.8 305.1 0 4.8-7.1 100.6-8 115.2 3.3-12.5 7-21.7 16.2-29.8-4.3 9.3-7.1 18.2-7 28.5 15.6-25.1 25.9-22.6 46.4-29.2-22.6 14.8-38.8 26.8-48.8 52.2-2.9 6.1-3.2 26.1-4.2 32.7.1 2-.1 11.5 0 21.6H480c17.7 0 32-14.3 32-32V32c0-17.7-14.3-32-32-32zM365.9 263.8c-20.6 46.7-41.1 79.5-46 86-10.5 14.4-20 30.8-24 47.6-20.5-46.1 23.6-131.9 27.4-146.7 9.7-36.8 30.8-97 68-121.4-26.8 31.4-37.3 76.4-38.7 118.4 0 0 23.4-29.7 31.3-37.2C406 189 424 170.8 455.5 166c-41.9 23.3-71.5 50.8-89.6 97.8z"/></svg>